# xmcd
#
# Track frame offsets:
#	150
#	16075
#	31025
#	44192
#	57625
#	72470
#	88262
#	101912
#	116490
#	130550
#	144950
#	161325
#	176150
#	189307
#	200925
#	215962
#	229075
#	242412
#	257337
#	270812
#
# Disc length: 3802 seconds
#
# Revision: 5
# Processed by: cddbd v1.5.2PL0 Copyright (c) Steve Scherf et al.
# Submitted via: AudioConverter v8.05 Copyright (c) D.R. Software
#
DISCID=1f0ed814
DTITLE=Various Artist - BLU GNC 073 - Blues Women
DYEAR=1996
DGENRE=Blues
TTITLE0=I've Got Ford Movements in My Hips - Cleo Gibson
TTITLE1=Chickasaw Train Blues (Low Down Dirty Thing) - Memphis Minnie
TTITLE2=I'm A Mighty Tight Woman - Sippie Wallace
TTITLE3=Lock and Key - Bessie Smith
TTITLE4=Trouble In My Mind Blues - Bertha "Chippie" Hill
TTITLE5=My Man o' War - Lizzy Miles
TTITLE6=Pig Iron Sally - Lucille Bogan (as Bessie Jackson)
TTITLE7=Shipwrecked Blues - Clara Smith
TTITLE8=I've Got What It Takes (It Breaks My Heart To Give It Away) - Margaret Webster
TTITLE9=Doggone My Good Luck's Soul - Hattie Hudson
TTITLE10=Muddy Creek Blues - Mary Johnson
TTITLE11=Second-Handed Blues - Margaret Johnson
TTITLE12=My Daddy Rocks Me - Trixie Smith
TTITLE13=Alley Boogie - Georgia White
TTITLE14=Minor Blues - Lil Johnson
TTITLE15=Love With A Feeling - Yas Yas Girl
TTITLE16=Hard Time Blues - Ida Cox
TTITLE17=Maggie Jones - Cheatin' On Me
TTITLE18=Lil Green - Why Don't You Do Right
TTITLE19=Lillie Mae - Bootie Wah Bootie
EXTD=
EXTT0=
EXTT1=
EXTT2=
EXTT3=
EXTT4=
EXTT5=
EXTT6=
EXTT7=
EXTT8=
EXTT9=
EXTT10=
EXTT11=
EXTT12=
EXTT13=
EXTT14=
EXTT15=
EXTT16=
EXTT17=
EXTT18=
EXTT19=
PLAYORDER=
